<svg width="24" height="24" viewBox="0 0 24 24" fill="none" xmlns="http://www.w3.org/2000/svg">
<path d="M12 2C6.47301 2 2 6.4725 2 12C2 17.5269 6.4725 22 12 22C17.527 22 22 17.5275 22 12C22 6.47309 17.5275 2 12 2ZM12 20.6046C7.25539 20.6046 3.39535 16.7446 3.39535 12C3.39535 7.25535 7.25539 3.39535 12 3.39535C16.7446 3.39535 20.6046 7.25535 20.6046 12C20.6046 16.7446 16.7446 20.6046 12 20.6046Z" fill="white"/>
<path d="M12.0002 10.3359C11.4079 10.3359 10.9867 10.5861 10.9867 10.9546V15.9697C10.9867 16.2857 11.4079 16.6015 12.0002 16.6015C12.5663 16.6015 13.0269 16.2857 13.0269 15.9697V10.9546C13.0269 10.5861 12.5663 10.3359 12.0002 10.3359Z" fill="white"/>
<path d="M12.0002 7.24219C11.3947 7.24219 10.9209 7.67656 10.9209 8.17676C10.9209 8.67699 11.3948 9.12453 12.0002 9.12453C12.5926 9.12453 13.0665 8.67699 13.0665 8.17676C13.0665 7.67656 12.5925 7.24219 12.0002 7.24219Z" fill="white"/>
</svg>
