<svg width="219" height="78" viewBox="0 0 219 78" fill="none" xmlns="http://www.w3.org/2000/svg">
<g clip-path="url(#clip0_320_2129)">
<path d="M117.641 43.1409C117.641 37.4202 120.692 31.6765 127.319 29.4378C124.912 22.8768 120.337 17.3264 114.344 13.6988C108.352 10.0713 101.298 8.5825 94.3437 9.47712C87.3891 10.3717 80.9468 13.5965 76.0759 18.6215C71.205 23.6465 68.1953 30.1726 67.5414 37.1272C66.8875 44.0818 68.6284 51.0511 72.4779 56.8896C76.3274 62.728 82.0565 67.0883 88.7235 69.2536C95.3904 71.419 102.599 71.2606 109.163 68.8045C115.728 66.3485 121.258 61.7408 124.846 55.739C120.316 53.4484 117.641 48.9996 117.641 43.1409Z" fill="#39B54A"/>
<path d="M102.688 59.0021V64.9012H95.177V59.2899C89.8672 58.9734 84.7134 57.5633 81.5241 55.5893L85.5685 46.4846C89.3054 48.6306 93.5278 49.7969 97.8405 49.8744C101.4 49.8744 102.676 49.132 102.676 47.8601C102.676 43.2042 82.1134 46.9623 82.1134 33.1499C82.1134 27.1702 86.4699 22.1402 95.1827 20.9258V15.1707H102.694V20.8338C106.46 21.1189 110.128 22.1646 113.475 23.907L109.708 32.9542C106.039 31.101 102.584 30.2032 99.3485 30.2032C95.6796 30.2032 94.5125 31.2621 94.5125 32.534C94.5125 36.977 115.07 33.2707 115.07 46.922C115.064 52.6024 110.921 57.5748 102.688 59.0021Z" fill="white"/>
<path d="M69.8993 16.5116L67.8366 14.4742C62.1727 21.4784 59.106 30.2135 59.1533 39.2071C59.2007 48.2008 62.3592 56.9033 68.0966 63.848L70.1419 61.7934C64.9407 55.3969 62.0825 47.4262 62.0384 39.1949C61.9943 30.9636 64.7669 22.963 69.8993 16.5116Z" fill="white"/>
<path d="M120.882 10.7103L122.927 8.65575C115.897 3.01089 107.127 -0.0457871 98.0976 0.00139258C89.0677 0.0485723 80.3306 3.19672 73.3601 8.91473L75.4228 10.9521C81.8443 5.77118 89.8463 2.92416 98.1099 2.88022C106.373 2.83628 114.405 5.59804 120.882 10.7103Z" fill="white"/>
<path d="M75.0646 62.3977C74.5619 61.9027 74.0824 61.3905 73.6144 60.8668L65.826 68.7111L68.8246 71.6636L76.613 63.825C76.0872 63.3646 75.5672 62.8984 75.0646 62.3977Z" fill="white"/>
<path d="M74.8335 15.8555C75.3303 15.349 75.8446 14.8771 76.3703 14.4109L68.4779 6.65295L65.514 9.65141L73.3833 17.4094C73.8455 16.8742 74.3192 16.3562 74.8335 15.8555Z" fill="white"/>
<path d="M75.7232 67.2953L73.6779 69.3499C80.7073 74.9943 89.4761 78.0508 98.505 78.0036C107.534 77.9564 116.27 74.8085 123.24 69.0909L121.177 67.0536C114.756 72.233 106.755 75.0792 98.4926 75.1231C90.2303 75.1671 82.1995 72.4062 75.7232 67.2953Z" fill="white"/>
<path d="M121.789 62.1503C121.293 62.6568 120.778 63.1287 120.258 63.5949L128.128 71.3528L131.092 68.3659L123.222 60.6079C122.789 61.1316 122.292 61.6496 121.789 62.1503Z" fill="white"/>
<path d="M119.992 14.1807C120.518 14.6411 121.038 15.1073 121.547 15.608C122.055 16.1087 122.523 16.6152 122.991 17.1389L130.779 9.29457L127.781 6.34216L119.992 14.1807Z" fill="white"/>
<path d="M10.9026 48.3436L9.0653 55.8771H0L9.49863 23.3373H21.1292L30.8763 55.8771H21.4239L19.367 48.3436H10.9026ZM18.1248 41.8805L16.6226 36.039C16.1373 34.2031 15.5075 31.5499 15.0279 29.6162H14.9297C14.4444 31.5499 13.9591 34.2549 13.4737 36.085L12.0697 41.8805H18.1248Z" fill="white"/>
<path d="M56.9224 21.5992V48.3436C56.9224 51.2902 57.0207 54.2829 57.1131 55.8771H49.3362L49.0011 52.6427H48.9029C47.3025 55.3476 44.4425 56.4066 41.6807 56.4066C36.1572 56.4066 31.5523 51.6298 31.5523 44.1423C31.5003 36.1771 36.5905 31.5902 42.2123 31.5902C44.8296 31.5902 47.0136 32.3672 48.0767 33.8635H48.1749V21.5992H56.9224ZM48.198 42.3582C48.2048 41.9874 48.1893 41.6164 48.1518 41.2474C48.017 40.4192 47.5976 39.6634 46.9653 39.1091C46.333 38.5549 45.527 38.2366 44.6851 38.2087C41.7963 38.2087 40.4674 40.8158 40.4674 43.9639C40.4674 47.5839 42.2585 49.5176 44.6851 49.5176C45.4956 49.5126 46.2787 49.2249 46.8983 48.7044C47.5179 48.1839 47.9349 47.4637 48.0767 46.6688C48.1755 46.1432 48.2239 45.6094 48.2211 45.0746L48.198 42.3582Z" fill="white"/>
<path d="M133.703 28.4421C134.475 28.4484 135.247 28.4945 136.014 28.5802C134.564 23.2972 132.004 18.3813 128.503 14.1577L126.458 16.2123C129.417 19.8361 131.639 24 132.998 28.4709C133.241 28.4651 133.46 28.4421 133.703 28.4421Z" fill="white"/>
<path d="M132.64 57.4539C131.632 57.4542 130.626 57.3792 129.63 57.2295C128.761 58.7201 127.784 60.1454 126.706 61.4941L128.775 63.5314C130.31 61.6354 131.664 59.6007 132.819 57.4539H132.64Z" fill="white"/>
<path d="M139.232 54.3462C137.776 54.9735 135.303 55.3591 132.64 55.3591C124.736 55.3591 119.744 50.7204 119.744 43.1408C119.744 36.3843 124.401 30.5428 133.703 30.5428C135.577 30.5286 137.443 30.8043 139.232 31.36L137.967 37.7828C136.776 37.331 135.508 37.1178 134.235 37.1555C130.941 37.1555 128.665 39.377 128.665 42.8531C128.665 46.7148 131.375 48.5507 134.443 48.5507C135.745 48.6078 137.046 48.4123 138.273 47.9752L139.232 54.3462Z" fill="#39B54A"/>
<path d="M165.302 42.7092C165.302 51.3419 159.102 55.3706 152.411 55.3706C145.287 55.3706 139.758 50.8297 139.758 43.1063C139.758 35.5727 144.75 30.5542 152.897 30.5542C160.344 30.5427 165.302 35.5497 165.302 42.7092ZM148.777 42.9509C148.777 46.4731 149.933 49.224 152.654 49.224C154.965 49.224 156.288 46.7666 156.288 42.9509C156.288 39.6647 155.219 36.672 152.602 36.672C149.748 36.7007 148.789 39.8143 148.789 42.9509H148.777Z" fill="#39B54A"/>
<path d="M168.306 39.1352C168.306 35.9986 168.208 33.2937 168.11 31.0779H175.621L176.008 34.0706H176.106C177.897 31.7686 180.561 30.5485 183.808 30.5485C188.8 30.5485 193.63 34.9397 193.63 42.6343C193.63 51.3247 187.962 55.336 182.773 55.336C180.058 55.336 177.978 54.2713 177.105 53.0627H177.007V64.3659H168.283L168.306 39.1352ZM177.03 44.4472C177.025 44.9345 177.074 45.4208 177.175 45.8975C177.328 46.6865 177.748 47.3992 178.366 47.9167C178.983 48.4341 179.76 48.7249 180.566 48.7406C183.184 48.7406 184.784 46.4731 184.784 43.0487C184.784 39.7165 183.426 37.2935 180.665 37.2935C179.808 37.3231 178.987 37.647 178.343 38.2103C177.698 38.7736 177.269 39.5416 177.129 40.3841C177.045 40.7481 177.012 41.1218 177.03 41.4948V44.4472Z" fill="#39B54A"/>
<path d="M203.926 45.9897C204.215 47.8716 206.982 48.9363 210.033 48.9363C212.25 48.9733 214.458 48.6645 216.579 48.0213L217.694 53.811C214.849 54.8947 211.819 55.4204 208.773 55.3591C200.39 55.3591 195.641 50.7204 195.641 43.1927C195.641 37.6389 199.223 30.5312 207.999 30.5312C215.707 30.5312 218.977 36.1771 218.977 42.6977C218.988 43.8005 218.873 44.9009 218.636 45.9782L203.926 45.9897ZM210.957 40.1021C210.957 38.7497 210.328 36.2404 207.56 36.2404C204.995 36.2404 203.972 38.6058 203.828 40.1021H210.957Z" fill="#39B54A"/>
</g>
<defs>
<clipPath id="clip0_320_2129">
<rect width="219" height="78" fill="white"/>
</clipPath>
</defs>
</svg>
