<svg width="20" height="20" viewBox="0 0 20 20" fill="none" xmlns="http://www.w3.org/2000/svg">
<g clip-path="url(#clip0_320_2335)">
<path d="M13.7491 0C12.6829 0.0737496 11.4366 0.756245 10.7104 1.64499C10.0479 2.45124 9.50291 3.64873 9.71541 4.81247C10.8804 4.84872 12.0841 4.14998 12.7816 3.24623C13.4341 2.40499 13.9279 1.21499 13.7491 0Z" fill="black"/>
<path d="M17.9629 6.71001C16.9391 5.42627 15.5004 4.68127 14.1416 4.68127C12.3479 4.68127 11.5891 5.54002 10.3429 5.54002C9.05791 5.54002 8.08167 4.68377 6.53043 4.68377C5.00669 4.68377 3.3842 5.61502 2.35545 7.20751C0.909212 9.45 1.15671 13.6662 3.50045 17.2575C4.33919 18.5424 5.45919 19.9874 6.92418 19.9999C8.22792 20.0124 8.59542 19.1637 10.3617 19.1549C12.1279 19.1449 12.4629 20.0112 13.7641 19.9974C15.2304 19.9862 16.4116 18.3849 17.2504 17.1C17.8516 16.1787 18.0754 15.715 18.5416 14.675C15.1504 13.3837 14.6066 8.56125 17.9629 6.71001Z" fill="black"/>
</g>
<defs>
<clipPath id="clip0_320_2335">
<rect width="20" height="20" fill="white"/>
</clipPath>
</defs>
</svg>
