<svg width="10" height="10" viewBox="0 0 10 10" fill="none" xmlns="http://www.w3.org/2000/svg">
<path fill-rule="evenodd" clip-rule="evenodd" d="M10 5C10 7.76142 7.76142 10 5 10C2.23857 10 0 7.76142 0 5C0 2.23857 2.23857 0 5 0C7.76142 0 10 2.23857 10 5ZM6.44513 6.54711C6.52642 6.60032 6.62128 6.62595 6.71566 6.62595C6.8534 6.62595 6.98886 6.57194 7.07744 6.4679C7.22736 6.29407 7.18673 6.04693 6.98711 5.91645L5.36127 4.85219V2.68427C5.36127 2.46668 5.15894 2.29009 4.90965 2.29009C4.66035 2.29009 4.45802 2.46668 4.45802 2.68427V5.04926C4.45802 5.17344 4.52486 5.2905 4.63867 5.3646L6.44513 6.54711Z" fill="#665687"/>
</svg>
