<svg width="12" height="12" viewBox="0 0 12 12" fill="none" xmlns="http://www.w3.org/2000/svg">
<path d="M7.78156 6.88344L6.38728 5.83774V3.70762C6.38728 3.49344 6.21416 3.32031 5.99998 3.32031C5.7858 3.32031 5.61267 3.49344 5.61267 3.70762V6.03141C5.61267 6.1534 5.67 6.26844 5.76759 6.34125L7.31677 7.50315C7.38648 7.55543 7.46783 7.58061 7.54877 7.58061C7.66689 7.58061 7.78308 7.52754 7.859 7.4253C7.98762 7.25448 7.95275 7.01164 7.78156 6.88344Z" fill="#828382"/>
<path d="M6 1C3.24283 1 1 3.24283 1 6C1 8.75717 3.24283 11 6 11C8.75717 11 11 8.75717 11 6C11 3.24283 8.75717 1 6 1ZM6 10.2254C3.67041 10.2254 1.77459 8.32959 1.77459 6C1.77459 3.67041 3.67041 1.77459 6 1.77459C8.32998 1.77459 10.2254 3.67041 10.2254 6C10.2254 8.32959 8.32959 10.2254 6 10.2254Z" fill="#828382"/>
</svg>
