<svg width="24" height="24" viewBox="0 0 24 24" fill="none" xmlns="http://www.w3.org/2000/svg">
<path d="M18.4284 12.0002C18.0339 12.0002 17.7141 12.32 17.7141 12.7145V19.8573C17.7141 20.2518 17.3944 20.5716 16.9998 20.5716H4.14271C3.74821 20.5716 3.42841 20.2518 3.42841 19.8573V5.57157C3.42841 5.17707 3.74821 4.85727 4.14271 4.85727H12.7142C13.1087 4.85727 13.4285 4.53748 13.4285 4.14297C13.4285 3.74847 13.1087 3.42871 12.7142 3.42871H4.14271C2.95924 3.42871 1.99985 4.3881 1.99985 5.57157V19.8573C1.99985 21.0408 2.95924 22.0002 4.14271 22.0002H16.9999C18.1834 22.0002 19.1428 21.0408 19.1428 19.8573V12.7144C19.1428 12.32 18.823 12.0002 18.4284 12.0002Z" fill="#293241"/>
<path d="M21.1995 2.80099C20.6866 2.28804 19.991 1.99993 19.2656 2.00001C18.5399 1.99792 17.8435 2.28654 17.3321 2.80145L7.92343 12.2093C7.84537 12.2879 7.78649 12.3835 7.75129 12.4886L6.32272 16.7743C6.19804 17.1486 6.4004 17.5531 6.77469 17.6777C6.84731 17.7019 6.92335 17.7142 6.99986 17.7143C7.07654 17.7142 7.15275 17.7019 7.22557 17.6779L11.5113 16.2493C11.6166 16.2142 11.7122 16.155 11.7906 16.0765L21.1992 6.6679C22.2671 5.60015 22.2672 3.86886 21.1995 2.80099ZM20.1892 5.65857L10.9034 14.9443L8.12913 15.8707L9.0527 13.1L18.342 3.81429C18.8527 3.30461 19.6799 3.30544 20.1896 3.81613C20.4331 4.06009 20.5703 4.39035 20.5713 4.73501C20.5722 5.08151 20.4346 5.41399 20.1892 5.65857Z" fill="#293241"/>
</svg>
