<svg width="16" height="16" viewBox="0 0 16 16" fill="none" xmlns="http://www.w3.org/2000/svg">
<path d="M13.09 13.5902C13.2226 13.5902 13.3498 13.5375 13.4435 13.4437C13.5373 13.3499 13.59 13.2228 13.59 13.0902V11.5352C13.995 11.4266 14.3528 11.1874 14.6081 10.8547C14.8633 10.522 15.0016 10.1145 15.0016 9.69516C15.0016 9.27586 14.8633 8.86828 14.6081 8.5356C14.3528 8.20293 13.995 7.96375 13.59 7.85516V2.91016C13.59 2.77755 13.5373 2.65037 13.4435 2.5566C13.3498 2.46283 13.2226 2.41016 13.09 2.41016C12.9574 2.41016 12.8302 2.46283 12.7364 2.5566C12.6427 2.65037 12.59 2.77755 12.59 2.91016V7.86016C12.185 7.96875 11.8272 8.20793 11.5719 8.5406C11.3167 8.87328 11.1784 9.28086 11.1784 9.70016C11.1784 10.1195 11.3167 10.527 11.5719 10.8597C11.8272 11.1924 12.185 11.4316 12.59 11.5402V13.0952C12.5913 13.2269 12.6446 13.3528 12.7382 13.4455C12.8318 13.5382 12.9582 13.5902 13.09 13.5902ZM12.175 9.69516C12.175 9.51419 12.2287 9.33728 12.3292 9.18681C12.4297 9.03634 12.5726 8.91906 12.7398 8.84981C12.907 8.78056 13.091 8.76244 13.2685 8.79774C13.446 8.83305 13.609 8.92019 13.737 9.04816C13.865 9.17612 13.9521 9.33916 13.9874 9.51665C14.0227 9.69414 14.0046 9.87812 13.9353 10.0453C13.8661 10.2125 13.7488 10.3554 13.5983 10.456C13.4479 10.5565 13.271 10.6102 13.09 10.6102C12.8473 10.6102 12.6146 10.5138 12.443 10.3422C12.2714 10.1706 12.175 9.93783 12.175 9.69516Z" fill="#293241"/>
<path d="M8 13.5901C8.1326 13.5901 8.25978 13.5374 8.35355 13.4436C8.44732 13.3498 8.5 13.2227 8.5 13.0901V6.16006C8.9481 6.03886 9.33692 5.75901 9.59414 5.37258C9.85136 4.98615 9.95945 4.51945 9.89832 4.05929C9.83718 3.59913 9.61098 3.17683 9.26179 2.87097C8.9126 2.5651 8.4642 2.39648 8 2.39648C7.53579 2.39648 7.08739 2.5651 6.7382 2.87097C6.38901 3.17683 6.16281 3.59913 6.10168 4.05929C6.04054 4.51945 6.14864 4.98615 6.40585 5.37258C6.66307 5.75901 7.05189 6.03886 7.5 6.16006V13.0901C7.5 13.2227 7.55267 13.3498 7.64644 13.4436C7.74021 13.5374 7.86739 13.5901 8 13.5901ZM7.085 4.32506C7.08401 4.14388 7.13683 3.96648 7.23676 3.81536C7.3367 3.66423 7.47926 3.54617 7.64636 3.47615C7.81347 3.40613 7.9976 3.3873 8.17542 3.42203C8.35324 3.45677 8.51674 3.54352 8.64521 3.67129C8.77368 3.79905 8.86132 3.96208 8.89703 4.1397C8.93274 4.31733 8.91492 4.50156 8.84581 4.66905C8.77671 4.83653 8.65944 4.97973 8.50886 5.0805C8.35828 5.18126 8.18118 5.23506 8 5.23506C7.75819 5.23506 7.52621 5.13935 7.35475 4.96883C7.1833 4.79832 7.08632 4.56686 7.085 4.32506Z" fill="#293241"/>
<path d="M2.41 9.84016V13.0902C2.41 13.2228 2.46268 13.3499 2.55645 13.4437C2.65022 13.5375 2.77739 13.5902 2.91 13.5902C3.04261 13.5902 3.16979 13.5375 3.26356 13.4437C3.35732 13.3499 3.41 13.2228 3.41 13.0902V9.84016C3.81499 9.73156 4.17284 9.49239 4.42806 9.15971C4.68329 8.82704 4.82162 8.41946 4.82162 8.00016C4.82162 7.58086 4.68329 7.17328 4.42806 6.8406C4.17284 6.50793 3.81499 6.26875 3.41 6.16016V2.91016C3.41 2.77755 3.35732 2.65037 3.26356 2.5566C3.16979 2.46283 3.04261 2.41016 2.91 2.41016C2.77739 2.41016 2.65022 2.46283 2.55645 2.5566C2.46268 2.65037 2.41 2.77755 2.41 2.91016V6.16016C2.00501 6.26875 1.64716 6.50793 1.39194 6.8406C1.13672 7.17328 0.998383 7.58086 0.998383 8.00016C0.998383 8.41946 1.13672 8.82704 1.39194 9.15971C1.64716 9.49239 2.00501 9.73156 2.41 9.84016ZM2.91 7.08516C3.09118 7.08417 3.26858 7.13699 3.4197 7.23693C3.57083 7.33687 3.68889 7.47942 3.75891 7.64652C3.82893 7.81363 3.84777 7.99776 3.81303 8.17558C3.77829 8.3534 3.69154 8.51691 3.56378 8.64537C3.43601 8.77384 3.27298 8.86148 3.09536 8.89719C2.91773 8.93291 2.7335 8.91508 2.56601 8.84598C2.39853 8.77687 2.25533 8.6596 2.15456 8.50902C2.0538 8.35844 2 8.18134 2 8.00016C2 7.75835 2.09571 7.52637 2.26623 7.35492C2.43674 7.18346 2.6682 7.08648 2.91 7.08516Z" fill="#293241"/>
</svg>
