<svg width="20" height="20" viewBox="0 0 20 20" fill="none" xmlns="http://www.w3.org/2000/svg">
<g clip-path="url(#clip0_320_2344)">
<path d="M19.2449 8.26162L11.087 8.26123C10.7268 8.26123 10.4348 8.55318 10.4348 8.91342V11.5195C10.4348 11.8796 10.7268 12.1717 11.087 12.1717H15.681C15.1779 13.4772 14.239 14.5705 13.0411 15.2652L15 18.6562C18.1423 16.8388 20 13.6502 20 10.0808C20 9.57252 19.9625 9.2092 19.8876 8.8001C19.8307 8.48928 19.5608 8.26162 19.2449 8.26162Z" fill="#167EE6"/>
<path d="M10 16.0869C7.75179 16.0869 5.78914 14.8586 4.73504 13.0409L1.34418 14.9953C3.06976 17.9861 6.30234 20 10 20C11.8139 20 13.5255 19.5116 15 18.6605V18.6558L13.0411 15.2648C12.1451 15.7845 11.1082 16.0869 10 16.0869Z" fill="#12B347"/>
<path d="M15 18.6606V18.6559L13.0411 15.2649C12.1451 15.7845 11.1083 16.087 10 16.087V20.0001C11.8139 20.0001 13.5256 19.5117 15 18.6606Z" fill="#0F993E"/>
<path d="M3.91305 10.0001C3.91305 8.89195 4.21547 7.85519 4.73504 6.95921L1.34418 5.00476C0.488359 6.47456 0 8.18152 0 10.0001C0 11.8187 0.488359 13.5257 1.34418 14.9955L4.73504 13.041C4.21547 12.145 3.91305 11.1083 3.91305 10.0001Z" fill="#FFD500"/>
<path d="M10 3.91305C11.4661 3.91305 12.8127 4.43398 13.8645 5.30051C14.124 5.51426 14.5012 5.49883 14.7389 5.26113L16.5853 3.41465C16.855 3.14496 16.8358 2.70352 16.5477 2.45359C14.7854 0.924727 12.4925 0 10 0C6.30234 0 3.06976 2.01395 1.34418 5.00465L4.73504 6.9591C5.78914 5.14141 7.75179 3.91305 10 3.91305Z" fill="#FF4B26"/>
<path d="M13.8645 5.30051C14.124 5.51426 14.5012 5.49883 14.7389 5.26113L16.5854 3.41465C16.855 3.14496 16.8358 2.70352 16.5477 2.45359C14.7854 0.924688 12.4925 0 10 0V3.91305C11.466 3.91305 12.8127 4.43398 13.8645 5.30051Z" fill="#D93F21"/>
</g>
<defs>
<clipPath id="clip0_320_2344">
<rect width="20" height="20" fill="white"/>
</clipPath>
</defs>
</svg>
