<svg width="24" height="24" viewBox="0 0 24 24" fill="none" xmlns="http://www.w3.org/2000/svg">
<path d="M23 12C23 18.0802 18.0794 23 12 23C5.91979 23 1 18.0794 1 12C1 9.54545 1.79905 7.21401 3.27318 5.3016H1.85938C1.38474 5.3016 1 4.91686 1 4.44223C1 3.96759 1.38474 3.58285 1.85938 3.58285H5.2396C5.71423 3.58285 6.09897 3.96759 6.09897 4.44223V7.82245C6.09897 8.29708 5.71423 8.68182 5.2396 8.68182C4.76497 8.68182 4.38022 8.29708 4.38022 7.82245V6.69727C3.3005 8.24178 2.71875 10.0761 2.71875 12C2.71875 17.1302 6.87052 21.2812 12 21.2812C17.1302 21.2812 21.2812 17.1295 21.2812 12C21.2812 6.86983 17.1295 2.71875 12 2.71875C11.5254 2.71875 11.1406 2.33401 11.1406 1.85938C11.1406 1.38474 11.5254 1 12 1C18.0802 1 23 5.92061 23 12ZM12 12.8594H17.0703C17.5449 12.8594 17.9297 12.4746 17.9297 12C17.9297 11.5254 17.5449 11.1406 17.0703 11.1406H12.8594V5.2396C12.8594 4.76497 12.4746 4.38022 12 4.38022C11.5254 4.38022 11.1406 4.76497 11.1406 5.2396V12C11.1406 12.4746 11.5254 12.8594 12 12.8594Z" fill="white"/>
</svg>
