<svg width="8" height="12" viewBox="0 0 8 12" fill="none" xmlns="http://www.w3.org/2000/svg">
<path d="M4 0.5C1.79442 0.5 0 2.21526 0 4.32355C0 6.97344 4.00393 11.5 4.00393 11.5C4.00393 11.5 8 6.84313 8 4.32355C8 2.21526 6.20565 0.5 4 0.5ZM5.20688 5.44308C4.8741 5.76112 4.43709 5.92017 4 5.92017C3.56299 5.92017 3.12583 5.76112 2.79319 5.44308C2.12769 4.80701 2.12769 3.772 2.79319 3.13586C3.11543 2.8277 3.54409 2.65797 4 2.65797C4.45591 2.65797 4.8845 2.82776 5.20688 3.13586C5.87238 3.772 5.87238 4.80701 5.20688 5.44308Z" fill="#665687"/>
</svg>
