<svg width="24" height="24" viewBox="0 0 24 24" fill="none" xmlns="http://www.w3.org/2000/svg">
<path d="M16.1022 17.3125V18.875C16.1022 20.5982 14.7003 22 12.977 22H5.12514C3.40189 22 2 20.5982 2 18.875V5.125C2 3.40182 3.40189 2 5.12514 2H12.977C14.7003 2 16.1022 3.40182 16.1022 5.125V6.6875C16.1022 7.11902 15.7524 7.46875 15.3209 7.46875C14.8894 7.46875 14.5396 7.11902 14.5396 6.6875V5.125C14.5396 4.26349 13.8386 3.5625 12.977 3.5625H5.12514C4.26359 3.5625 3.56257 4.26349 3.56257 5.125V18.875C3.56257 19.7365 4.26359 20.4375 5.12514 20.4375H12.977C13.8386 20.4375 14.5396 19.7365 14.5396 18.875V17.3125C14.5396 16.881 14.8894 16.5312 15.3209 16.5312C15.7524 16.5312 16.1022 16.881 16.1022 17.3125ZM21.4288 10.658L19.6793 8.90857C19.3741 8.60339 18.8794 8.60339 18.5744 8.90857C18.2692 9.21359 18.2692 9.70828 18.5744 10.0133L19.8188 11.2578H10.4379C10.0063 11.2578 9.65659 11.6075 9.65659 12.0391C9.65659 12.4706 10.0063 12.8203 10.4379 12.8203H19.8188L18.5744 14.0648C18.2692 14.3698 18.2692 14.8645 18.5744 15.1696C18.727 15.3221 18.9269 15.3984 19.1268 15.3984C19.3268 15.3984 19.5267 15.3221 19.6793 15.1696L21.4288 13.4201C22.1904 12.6586 22.1904 11.4196 21.4288 10.658Z" fill="white"/>
</svg>
