<svg width="24" height="24" viewBox="0 0 24 24" fill="none" xmlns="http://www.w3.org/2000/svg">
<path d="M22.9634 13.4718L21.2934 3.96572C21.0665 2.67416 19.8348 1.80861 18.5482 2.03638L4.22513 4.57133C2.93829 4.79906 2.07598 6.03509 2.30287 7.32665L2.42557 8.02523C1.58752 8.39217 1 9.23143 1 10.2063V19.6215C1 20.933 2.06305 22 3.36971 22H17.588C18.8946 22 19.9577 20.933 19.9577 19.6215V16.4189L21.0411 16.2271C21.6645 16.1168 22.2077 15.7695 22.5708 15.249C22.9339 14.7286 23.0733 14.0974 22.9634 13.4718ZM21.512 14.5049C21.347 14.7414 21.1 14.8993 20.8167 14.9495L19.9577 15.1015V14.3621V11.4192V10.2062C19.9577 8.89472 18.8946 7.82773 17.588 7.82773H3.70345L3.57583 7.10134C3.52585 6.81696 3.58927 6.53007 3.75429 6.29348C3.91931 6.05693 4.16628 5.89904 4.44961 5.84888L18.7727 3.31397C18.8357 3.30282 18.8983 3.29745 18.9603 3.29745C19.4728 3.29745 19.9285 3.66711 20.0205 4.19094L21.6905 13.697C21.7404 13.9814 21.677 14.2683 21.512 14.5049ZM17.588 20.7026H3.36971C2.77577 20.7026 2.29257 20.2176 2.29257 19.6215V15.0108H18.6651V19.6215C18.6651 20.2176 18.1819 20.7026 17.588 20.7026ZM3.36971 9.12513H17.588C18.1819 9.12513 18.6651 9.61013 18.6651 10.2063V10.7706H2.29257V10.2063C2.29257 9.61013 2.77577 9.12513 3.36971 9.12513ZM18.6651 12.068V13.7134H2.29257V12.068H18.6651Z" fill="white"/>
<path d="M7.38807 18H4.61193C4.27398 18 4 18.2239 4 18.5C4 18.7761 4.27398 19 4.61193 19H7.38807C7.72602 19 8 18.7761 8 18.5C8 18.2239 7.72602 18 7.38807 18Z" fill="white"/>
</svg>
