<svg width="24" height="24" viewBox="0 0 24 24" fill="none" xmlns="http://www.w3.org/2000/svg">
<path d="M19.9558 5.23851L12.2996 2.05972C12.1078 1.98011 11.8922 1.98007 11.7004 2.05972L4.04418 5.23851C3.75258 5.35961 3.5625 5.6443 3.5625 5.96004V9.8243C3.5625 15.1451 6.77848 19.9313 11.7048 21.9421C11.894 22.0193 12.106 22.0193 12.2952 21.9421C17.2215 19.9314 20.4375 15.1452 20.4375 9.8243V5.96004C20.4375 5.6443 20.2475 5.35961 19.9558 5.23851ZM18.875 9.8243C18.875 14.3475 16.2188 18.5115 12 20.3702C7.89399 18.5611 5.125 14.4701 5.125 9.8243V6.4816L12 3.62714L18.875 6.4816V9.8243ZM11.1365 12.4577L14.4945 9.09973C14.7995 8.79465 15.2942 8.79461 15.5993 9.09973C15.9044 9.40485 15.9044 9.89949 15.5993 10.2046L11.6889 14.1149C11.3838 14.4201 10.8891 14.42 10.5841 14.1149L8.40071 11.9316C8.09559 11.6264 8.09559 11.1318 8.40071 10.8267C8.70582 10.5216 9.20047 10.5216 9.50555 10.8267L11.1365 12.4577Z" fill="white"/>
</svg>
