<svg width="32" height="32" viewBox="0 0 32 32" fill="none" xmlns="http://www.w3.org/2000/svg">
<path d="M20.0479 9.92725C18.9922 9.92725 18.1333 9.02771 18.1333 7.92204V1.3335H8.34189C6.68298 1.3335 5.33334 2.74705 5.33334 4.48454V27.5158C5.33334 29.2533 6.68298 30.6668 8.34189 30.6668H23.6581C25.317 30.6668 26.6667 29.2533 26.6667 27.5158V9.92725H20.0479ZM9.81881 21.9585H13.7967C14.2498 21.9585 14.6172 22.3433 14.6172 22.8179C14.6172 23.2925 14.2498 23.6772 13.7967 23.6772H9.81881C9.36567 23.6772 8.9983 23.2925 8.9983 22.8179C8.9983 22.3433 9.36567 21.9585 9.81881 21.9585ZM8.9983 18.2345C8.9983 17.7599 9.36567 17.3752 9.81881 17.3752H21.853C22.3061 17.3752 22.6735 17.7599 22.6735 18.2345C22.6735 18.7091 22.3061 19.0939 21.853 19.0939H9.81881C9.36567 19.0939 8.9983 18.7091 8.9983 18.2345ZM21.853 12.7918C22.3061 12.7918 22.6735 13.1766 22.6735 13.6512C22.6735 14.1258 22.3061 14.5106 21.853 14.5106H9.81881C9.36567 14.5106 8.9983 14.1258 8.9983 13.6512C8.9983 13.1766 9.36567 12.7918 9.81881 12.7918H21.853Z" fill="white"/>
<path d="M20 7.76546C20 7.8947 20.1253 7.99984 20.2794 7.99984H26.6667C26.5133 7.76237 26.3161 7.54426 26.0791 7.35616L20.6915 3.08017C20.4824 2.91424 20.2495 2.77582 20.0001 2.6665V7.76546H20Z" fill="white"/>
</svg>
