<svg width="24" height="24" viewBox="0 0 24 24" fill="none" xmlns="http://www.w3.org/2000/svg">
<path d="M17.6149 15.4529C16.6241 15.4529 15.7313 15.8667 15.1117 16.525L9.53867 13.187C9.68746 12.8186 9.76998 12.4185 9.76998 12C9.76998 11.5813 9.68746 11.1812 9.53867 10.813L15.1117 7.47485C15.7313 8.13312 16.6241 8.54709 17.6149 8.54709C19.4815 8.54709 21 7.07858 21 5.27347C21 3.46835 19.4815 2 17.6149 2C15.7484 2 14.2299 3.46851 14.2299 5.27362C14.2299 5.69217 14.3125 6.09225 14.4612 6.4606L8.88829 9.79861C8.26868 9.14035 7.37594 8.72638 6.38507 8.72638C4.5185 8.72638 3 10.195 3 12C3 13.8051 4.5185 15.2736 6.38507 15.2736C7.37594 15.2736 8.26868 14.8598 8.88829 14.2014L14.4612 17.5394C14.3125 17.9077 14.2299 18.3078 14.2299 18.7265C14.2299 20.5315 15.7484 22 17.6149 22C19.4815 22 21 20.5315 21 18.7265C21 16.9214 19.4815 15.4529 17.6149 15.4529ZM15.4642 5.27362C15.4642 4.12677 16.429 3.1937 17.6149 3.1937C18.8008 3.1937 19.7657 4.12677 19.7657 5.27362C19.7657 6.42047 18.8008 7.35355 17.6149 7.35355C16.429 7.35355 15.4642 6.42047 15.4642 5.27362ZM6.38507 14.0799C5.19902 14.0799 4.23418 13.1469 4.23418 12C4.23418 10.8531 5.19902 9.92007 6.38507 9.92007C7.57096 9.92007 8.53565 10.8531 8.53565 12C8.53565 13.1469 7.57096 14.0799 6.38507 14.0799ZM15.4642 18.7264C15.4642 17.5795 16.429 16.6465 17.6149 16.6465C18.8008 16.6465 19.7657 17.5795 19.7657 18.7264C19.7657 19.8732 18.8008 20.8063 17.6149 20.8063C16.429 20.8063 15.4642 19.8732 15.4642 18.7264Z" fill="white"/>
</svg>
